<svg data-v-fde0c5aa="" xmlns="http://www.w3.org/2000/svg" viewBox="0 0 300 300" class="iconLeft"><!----><defs data-v-fde0c5aa=""><linearGradient data-v-fde0c5aa="" gradientTransform="rotate(25)" id="12cff349-edd2-4779-9b5a-48da1eae6b0b" x1="0%" y1="0%" x2="100%" y2="0%"><stop data-v-fde0c5aa="" offset="0%" stop-color="#410FF8" stop-opacity="1"></stop><stop data-v-fde0c5aa="" offset="100%" stop-color="#410FF8" stop-opacity="1"></stop></linearGradient></defs><rect data-v-fde0c5aa="" fill="url(#12cff349-edd2-4779-9b5a-48da1eae6b0b)" x="0" y="0" width="300px" height="300px" class="logo-background-square"></rect><defs data-v-fde0c5aa=""><!----></defs><g data-v-fde0c5aa="" id="a2f13ddb-7651-40d3-bf93-98f393862eca" fill="#ffffff" transform="matrix(3.7863740989709793,0,0,3.7863740989709793,103.5848875422798,117.17213807852806)"><path d="M5.68 3.98C5.19 3.92 4.97 3.92 4.45 3.92L1.33 3.92L1.33 13.58L4.40 13.58C4.91 13.58 5.14 13.58 5.63 13.52C7.87 13.24 9.58 11.52 9.58 8.64C9.58 5.71 7.92 4.24 5.68 3.98ZM5.36 12.29C5.05 12.35 4.73 12.35 4.26 12.35L2.87 12.35L2.87 5.14L4.31 5.14C4.77 5.14 5.11 5.15 5.42 5.21C6.96 5.43 7.92 6.61 7.92 8.64C7.92 10.78 6.92 12.07 5.36 12.29ZM14.35 5.96C13.97 5.96 13.54 6.12 13.20 6.38L12.57 7.41L12.57 6.15L11.03 6.15L11.03 13.58L12.57 13.58L12.57 9.72C12.57 7.88 13.45 7.15 14.87 7.25L14.87 6.05C14.71 5.99 14.56 5.96 14.35 5.96ZM16.74 3.56C16.23 3.56 15.85 3.93 15.85 4.44C15.85 4.96 16.23 5.33 16.74 5.33C17.26 5.33 17.65 4.96 17.65 4.44C17.65 3.93 17.26 3.56 16.74 3.56ZM17.51 13.58L17.51 6.15L15.97 6.15L15.97 13.58ZM26.01 6.15L24.37 6.15L22.32 12.45L20.23 6.15L18.54 6.15L21.38 13.58L23.17 13.58ZM33.24 9.67C33.24 7.57 32.07 5.95 29.92 5.95C27.78 5.95 26.28 7.53 26.28 9.88C26.28 12.52 27.78 13.78 29.76 13.78C31.39 13.78 32.80 12.94 33.12 11.17L31.57 11.17C31.42 12.11 30.72 12.66 29.82 12.66C28.81 12.66 28.00 12.07 27.87 10.29L33.21 10.29C33.24 10.02 33.24 9.81 33.24 9.67ZM29.86 7.07C30.94 7.07 31.54 7.84 31.65 9.21L27.89 9.21C28.06 7.78 28.81 7.07 29.86 7.07ZM41.27 8.08C41.13 6.78 40.22 5.95 38.63 5.95C37.88 5.95 37.34 6.08 36.75 6.52L36.25 7.38L36.25 6.15L34.71 6.15L34.71 13.58L36.25 13.58L36.25 10.25C36.25 7.92 37.11 7.08 38.18 7.08C39.23 7.08 39.68 7.67 39.75 8.51C39.77 8.89 39.77 9.21 39.77 9.56L39.77 13.58L41.31 13.58L41.31 9.39C41.31 8.79 41.30 8.46 41.27 8.08Z"></path></g><defs data-v-fde0c5aa=""><!----></defs><g data-v-fde0c5aa="" id="abd9ab2b-211f-4e07-8df6-96f94a44650e" stroke="none" fill="#ffffff" transform="matrix(0.6045735353957039,0,0,0.6045735353957039,38.79085292920859,120.9798628397545)"><path d="M92 47.996H4c-1.104 0-2 .9-2 2s.896 2 2 2h17.64l-3.788 11.368a2.007 2.007 0 0 0 1.264 2.532 2.013 2.013 0 0 0 2.532-1.268l4.124-12.38c.028-.084.012-.172.032-.252H73.82c.016.084.004.172.031.252l4.125 12.38a2 2 0 0 0 1.899 1.368c.208 0 .42-.032.632-.1a2.007 2.007 0 0 0 1.264-2.532l-3.787-11.368H92c1.1 0 2-.9 2-2s-.9-2-2-2zM4 43.996h88c1.1 0 2-.9 2-2s-.9-2-2-2H4c-1.104 0-2 .9-2 2s.896 2 2 2zM63.984 1.74A2.009 2.009 0 0 0 62-.004H38a2.009 2.009 0 0 0-1.984 1.744l-4.468 34.256h36.908L63.984 1.74zM52 31.996c0 1.1-.9 2-2 2-1.104 0-2-.9-2-2v-4c0-1.1.896-2 2-2 1.1 0 2 .9 2 2v4zm0-12c0 1.1-.9 2-2 2-1.104 0-2-.9-2-2v-4c0-1.1.896-2 2-2 1.1 0 2 .9 2 2v4zm0-12c0 1.1-.9 2-2 2-1.104 0-2-.9-2-2v-4c0-1.1.896-2 2-2 1.1 0 2 .9 2 2v4z"></path><path d="M71.064 55.996H52c0 1.1-.9 2-2 2-1.104 0-2-.9-2-2H28.94L24.016 93.74c-.076.576.1 1.148.48 1.584S25.424 96 26 96h48a.136.136 0 0 0 .08 0 2 2 0 0 0 2-2c0-.284-.061-.561-.164-.805l-4.852-37.199zM52 91.996c0 1.1-.9 2-2 2-1.104 0-2-.9-2-2v-4c0-1.1.896-2 2-2 1.1 0 2 .9 2 2v4zm0-12c0 1.1-.9 2-2 2-1.104 0-2-.9-2-2v-4c0-1.1.896-2 2-2 1.1 0 2 .9 2 2v4zm0-12c0 1.1-.9 2-2 2-1.104 0-2-.9-2-2v-4c0-1.1.896-2 2-2 1.1 0 2 .9 2 2v4z"></path></g><!----></svg>